<svg viewBox="0 0 400 300" xmlns="http://www.w3.org/2000/svg">
  <defs>
    <linearGradient id="p3bg" x1="0" y1="0" x2="1" y2="1">
      <stop offset="0%" stop-color="#6b8bff"/>
      <stop offset="100%" stop-color="#5b7cff"/>
    </linearGradient>
  </defs>
  <rect width="400" height="300" fill="url(#p3bg)"/>

  <!-- sidebar -->
  <rect x="0" y="0" width="90" height="300" fill="#14131a" opacity="0.25"/>
  <g fill="#ffffff" opacity="0.85">
    <rect x="24" y="40" width="42" height="8" rx="4"/>
    <rect x="24" y="70" width="42" height="8" rx="4"/>
    <rect x="24" y="100" width="42" height="8" rx="4"/>
  </g>

  <!-- chart -->
  <g fill="#ffffff">
    <rect x="130" y="180" width="26" height="70" rx="6"/>
    <rect x="168" y="140" width="26" height="110" rx="6"/>
    <rect x="206" y="100" width="26" height="150" rx="6"/>
    <rect x="244" y="160" width="26" height="90" rx="6"/>
    <rect x="282" y="120" width="26" height="130" rx="6"/>
    <rect x="320" y="70" width="26" height="180" rx="6"/>
  </g>
  <rect x="130" y="50" width="216" height="14" rx="7" fill="#ffffff" opacity="0.9"/>
  <rect x="130" y="72" width="140" height="10" rx="5" fill="#ffffff" opacity="0.5"/>
</svg>
